<?xml version="1.0" standalone="no"?>
<!DOCTYPE svg PUBLIC "-//W3C//DTD SVG 20010904//EN"
 "http://www.w3.org/TR/2001/REC-SVG-20010904/DTD/svg10.dtd">
<svg version="1.0" xmlns="http://www.w3.org/2000/svg"
 width="1280.000000pt" height="1280.000000pt" viewBox="0 0 1280.000000 1280.000000"
 preserveAspectRatio="xMidYMid meet">
<metadata>
Created by potrace 1.14, written by Peter Selinger 2001-2017
</metadata>
<g transform="translate(0.000000,1280.000000) scale(0.100000,-0.100000)"
fill="#000000" stroke="none">
<path d="M7095 9589 c-22 -4 -62 -8 -90 -10 -27 -1 -61 -6 -75 -10 -14 -4 -41
-10 -60 -13 -35 -6 -85 -16 -177 -37 -27 -5 -63 -13 -81 -16 -18 -3 -35 -9
-38 -14 -3 -5 -15 -9 -27 -9 -22 0 -119 -33 -194 -65 -76 -33 -209 -97 -233
-113 -14 -9 -27 -17 -30 -17 -13 -1 -141 -83 -194 -124 -32 -25 -70 -55 -85
-66 -59 -43 -171 -146 -311 -286 l-145 -146 -60 36 c-33 20 -80 45 -105 56
-25 10 -65 27 -89 38 -24 10 -51 20 -60 22 -9 2 -38 11 -65 20 -26 9 -56 18
-65 20 -9 2 -28 8 -42 13 -15 6 -29 8 -32 6 -3 -3 -14 -1 -24 4 -10 5 -43 12
-73 16 -30 3 -71 8 -90 12 -19 4 -120 8 -225 8 -172 1 -277 -9 -335 -32 -8 -3
-22 -6 -32 -7 -9 -1 -25 -6 -35 -10 -10 -4 -23 -9 -30 -11 -7 -1 -56 -24 -110
-50 -120 -59 -259 -150 -334 -218 -119 -108 -155 -143 -184 -177 -41 -47 -135
-190 -135 -205 0 -7 -4 -14 -9 -16 -15 -6 -99 -180 -122 -253 -6 -22 -15 -49
-19 -60 -8 -19 -27 -116 -33 -162 -2 -12 -6 -26 -10 -29 -4 -4 -7 -21 -7 -38
0 -36 -31 -92 -51 -93 -27 -1 -67 -11 -88 -23 -12 -6 -21 -9 -21 -6 0 5 -88
-30 -175 -68 -27 -12 -66 -29 -85 -36 -62 -25 -240 -122 -290 -158 -97 -71
-256 -223 -274 -263 -5 -10 -14 -19 -20 -20 -19 -1 -186 -217 -253 -326 -51
-84 -181 -366 -187 -406 -1 -7 -5 -17 -8 -23 -4 -6 -9 -21 -12 -35 -3 -13 -10
-39 -15 -58 -6 -19 -9 -37 -6 -39 3 -3 1 -10 -4 -16 -5 -6 -12 -24 -15 -41 -6
-32 -21 -98 -30 -130 -15 -55 -19 -141 -19 -370 0 -246 4 -316 23 -385 5 -19
11 -48 14 -65 6 -45 16 -88 23 -105 3 -8 8 -26 10 -40 2 -14 6 -32 9 -40 3 -8
5 -17 6 -20 0 -5 23 -69 38 -105 86 -213 125 -293 189 -388 25 -38 51 -76 56
-85 16 -26 88 -126 95 -132 3 -3 36 -41 74 -85 219 -256 445 -437 751 -604 54
-29 192 -85 203 -81 1 0 15 -6 30 -14 32 -16 252 -91 302 -102 19 -4 37 -8 40
-9 29 -8 60 -15 85 -19 17 -3 52 -10 78 -16 55 -11 101 -17 207 -27 120 -11
1602 -4 2645 12 508 9 485 9 1170 1 755 -9 1510 -10 1585 -2 126 14 166 19
185 23 11 2 30 6 42 8 12 2 35 6 52 10 17 3 33 6 36 6 2 0 23 6 45 14 22 8 40
12 40 9 0 -2 13 2 29 10 16 9 31 13 34 10 3 -3 17 2 31 11 14 10 26 14 26 11
0 -4 9 -2 21 4 11 6 28 13 37 15 38 7 208 79 298 126 116 60 353 214 361 234
3 8 9 13 13 10 14 -9 134 100 191 172 30 37 83 100 119 138 128 139 220 255
220 278 0 7 50 82 96 143 13 16 55 97 94 180 39 82 80 169 92 194 27 57 31 69
57 160 33 113 50 183 58 225 1 11 8 43 15 70 13 55 17 508 4 560 -7 28 -11 52
-21 115 -8 55 -24 126 -33 150 -5 14 -10 30 -11 35 -8 47 -23 96 -46 150 -8
17 -21 50 -31 75 -29 72 -176 349 -205 384 -5 6 -30 40 -56 76 -61 83 -268
296 -356 367 -111 89 -264 177 -422 243 -11 4 -36 15 -57 24 -20 9 -40 16 -45
16 -4 0 -20 6 -34 14 -21 10 -65 26 -89 30 -3 1 -18 6 -35 13 -28 11 -87 24
-128 28 -28 3 -49 29 -52 66 -2 19 -6 44 -8 55 -3 12 -8 37 -11 56 -3 18 -14
62 -25 96 -10 34 -17 62 -15 62 3 0 -2 13 -11 30 -8 16 -15 32 -15 35 1 13
-14 64 -30 100 -10 22 -28 67 -40 100 -53 139 -170 346 -263 465 -110 141
-294 331 -418 432 -85 69 -246 182 -252 177 -3 -2 -16 6 -29 18 -25 23 -349
183 -371 183 -7 0 -17 4 -22 8 -6 5 -30 14 -55 21 -25 7 -54 17 -65 21 -49 19
-249 67 -310 74 -22 3 -56 7 -75 10 -19 3 -57 8 -85 12 -70 9 -442 12 -490 3z
m-78 -415 c-3 -3 -12 -4 -19 -1 -8 3 -5 6 6 6 11 1 17 -2 13 -5z m620 0 c-3
-3 -12 -4 -19 -1 -8 3 -5 6 6 6 11 1 17 -2 13 -5z m-740 -20 c-3 -3 -12 -4
-19 -1 -8 3 -5 6 6 6 11 1 17 -2 13 -5z m840 0 c-3 -3 -12 -4 -19 -1 -8 3 -5
6 6 6 11 1 17 -2 13 -5z m-1907 -557 c0 -2 -12 -14 -27 -28 l-28 -24 24 28
c23 25 31 32 31 24z m-2393 -959 c-3 -7 -5 -2 -5 12 0 14 2 19 5 13 2 -7 2
-19 0 -25z m-20 -210 c-2 -18 -4 -4 -4 32 0 36 2 50 4 33 2 -18 2 -48 0 -65z
m-10 -160 c-3 -7 -5 -2 -5 12 0 14 2 19 5 13 2 -7 2 -19 0 -25z m6440 -184
c-3 -3 -12 -4 -19 -1 -8 3 -5 6 6 6 11 1 17 -2 13 -5z m1030 -1526 c-2 -13 -4
-5 -4 17 -1 22 1 32 4 23 2 -10 2 -28 0 -40z m-10 -150 c-3 -8 -6 -5 -6 6 -1
11 2 17 5 13 3 -3 4 -12 1 -19z m-4420 -1764 c-3 -3 -12 -4 -19 -1 -8 3 -5 6
6 6 11 1 17 -2 13 -5z m-2564 -11 c-7 -2 -21 -2 -30 0 -10 3 -4 5 12 5 17 0
24 -2 18 -5z m1415 0 c-10 -2 -28 -2 -40 0 -13 2 -5 4 17 4 22 1 32 -1 23 -4z
m-1195 -10 c-7 -2 -19 -2 -25 0 -7 3 -2 5 12 5 14 0 19 -2 13 -5z m60 0 c-7
-2 -21 -2 -30 0 -10 3 -4 5 12 5 17 0 24 -2 18 -5z m634 1 c-3 -3 -12 -4 -19
-1 -8 3 -5 6 6 6 11 1 17 -2 13 -5z m146 -1 c-7 -2 -21 -2 -30 0 -10 3 -4 5
12 5 17 0 24 -2 18 -5z"/>
</g>
</svg>
